<?xml version="1.0" encoding="UTF-8" standalone="no"?>
<svg width="64" height="64" viewBox="0 0 64 64" xmlns="http://www.w3.org/2000/svg">
  <!-- Background circle -->
  <circle cx="32" cy="32" r="30" fill="#E87147" />
  <circle cx="32" cy="32" r="27" fill="#1E2124" />
  
  <!-- Heart-shaped J -->
  <path d="M27,22 C27,17 30,15 33,15 C36,15 39,17 39,22 C39,27 34,32 32,35 C30,32 25,27 25,22" fill="#E87147" stroke="#E87147" stroke-width="1" />
  <path d="M32,35 L32,45" stroke="#E87147" stroke-width="3" stroke-linecap="round" />
  <path d="M26,45 C26,48 29,50 32,50 C35,50 38,48 38,45" stroke="#E87147" stroke-width="3" fill="none" stroke-linecap="round" />
  
  <!-- Small heart decoration -->
  <path d="M41,19 C41,17 42,16 44,16 C45,16 46,17 46,19 C46,21 44,23 43,24 C42,23 41,21 41,19" fill="#E87147" stroke="#E87147" stroke-width="1" />
</svg>